<svg xmlns="http://www.w3.org/2000/svg" version="1.1" xmlns:xlink="http://www.w3.org/1999/xlink" width="500" height="500"><svg xmlns="http://www.w3.org/2000/svg" xmlns:xlink="http://www.w3.org/1999/xlink" width="500" zoomAndPan="magnify" viewBox="0 0 375 374.999991" height="500" preserveAspectRatio="xMidYMid meet" version="1.0"><defs><clipPath id="SvgjsClipPath1511"><path d="M 18.914062 22.535156 L 145.664062 22.535156 L 145.664062 352.453125 L 18.914062 352.453125 Z M 18.914062 22.535156 " clip-rule="nonzero"></path></clipPath><clipPath id="SvgjsClipPath1510"><path d="M 108.277344 35 L 356.097656 35 L 356.097656 351.726562 L 108.277344 351.726562 Z M 108.277344 35 " clip-rule="nonzero"></path></clipPath></defs><rect x="-37.5" width="450" fill="#ffffff" y="-37.499999" height="449.999989" fill-opacity="1"></rect><rect x="-37.5" width="450" fill="#ffffff" y="-37.499999" height="449.999989" fill-opacity="1"></rect><g clip-path="url(#952e7087c3)"><path fill="#4caf50" d="M 87.695312 316.617188 C 95.921875 326.914062 101.214844 339.210938 104.625 350.511719 C 105.792969 351.171875 106.964844 351.820312 108.148438 352.453125 C 106.105469 298.789062 89.160156 269.296875 89.160156 269.296875 C 107.804688 292.636719 117.566406 322.054688 122.664062 345.367188 C 121.070312 262.792969 94.90625 217.273438 94.90625 217.273438 C 124.191406 253.933594 138.375 300.941406 145.210938 335.828125 C 149.5 134.367188 85.238281 22.5625 85.21875 22.53125 C 85.21875 22.535156 92.144531 42.996094 93.742188 63.546875 C 48.617188 93.800781 18.914062 145.269531 18.914062 203.675781 C 18.914062 263.417969 49.988281 315.902344 96.855469 345.847656 C 93.566406 326.832031 87.695312 316.617188 87.695312 316.617188 " fill-opacity="1" fill-rule="nonzero"></path></g><g clip-path="url(#4717fa0555)"><path fill="#81c784" d="M 187.503906 35.082031 C 158.9375 35.082031 132.035156 42.1875 108.457031 54.726562 C 150.074219 118.449219 174.289062 191.3125 188.339844 252.347656 C 202.804688 199.03125 226.800781 138.53125 266.527344 88.804688 C 266.527344 88.804688 220.21875 169.355469 217.472656 315.476562 C 226.90625 269.039062 245.960938 207.867188 284.289062 159.890625 C 284.289062 159.890625 248.761719 221.679688 246.984375 333.71875 C 253.546875 303.941406 266.050781 266.53125 289.789062 236.8125 C 289.789062 236.8125 266.347656 277.589844 265.242188 351.515625 C 269.109375 336.132812 275.851562 318.070312 287.558594 303.414062 C 287.558594 303.414062 278.621094 318.964844 275.277344 347.644531 C 323.746094 318.03125 356.097656 264.632812 356.097656 203.675781 C 356.097656 110.566406 280.617188 35.082031 187.503906 35.082031 " fill-opacity="1" fill-rule="nonzero"></path></g></svg><style>@media (prefers-color-scheme: light) { :root { filter: none; } }
@media (prefers-color-scheme: dark) { :root { filter: none; } }
</style></svg>