<svg xmlns="http://www.w3.org/2000/svg" xmlns:xlink="http://www.w3.org/1999/xlink" zoomAndPan="magnify" preserveAspectRatio="xMidYMid meet" version="1.2" viewBox="119.04 111.36 138.88 148.54"><defs><clipPath id="9fd43ac765"><path d="M 144.035156 111.359375 L 176.585938 111.359375 L 176.585938 196.082031 L 144.035156 196.082031 Z M 144.035156 111.359375 "/></clipPath><clipPath id="6caa7688af"><path d="M 167 114.519531 L 230.621094 114.519531 L 230.621094 195.894531 L 167 195.894531 Z M 167 114.519531 "/></clipPath></defs><g id="8f12569aa2"><g clip-rule="nonzero" clip-path="url(#9fd43ac765)"><path style=" stroke:none;fill-rule:nonzero;fill:#4caf50;fill-opacity:1;" d="M 161.699219 186.878906 C 163.808594 189.523438 165.171875 192.679688 166.046875 195.582031 C 166.34375 195.75 166.644531 195.917969 166.949219 196.082031 C 166.425781 182.300781 162.074219 174.726562 162.074219 174.726562 C 166.863281 180.71875 169.367188 188.273438 170.679688 194.261719 C 170.269531 173.054688 163.550781 161.367188 163.550781 161.367188 C 171.070312 170.78125 174.710938 182.851562 176.46875 191.8125 C 177.570312 140.078125 161.066406 111.367188 161.0625 111.359375 C 161.0625 111.359375 162.839844 116.613281 163.25 121.890625 C 151.664062 129.660156 144.035156 142.878906 144.035156 157.875 C 144.035156 173.21875 152.015625 186.695312 164.050781 194.382812 C 163.207031 189.5 161.699219 186.878906 161.699219 186.878906 "/></g><g clip-rule="nonzero" clip-path="url(#6caa7688af)"><path style=" stroke:none;fill-rule:nonzero;fill:#81c784;fill-opacity:1;" d="M 187.328125 114.582031 C 179.992188 114.582031 173.085938 116.40625 167.03125 119.628906 C 177.714844 135.988281 183.933594 154.699219 187.542969 170.375 C 191.257812 156.683594 197.417969 141.148438 207.621094 128.378906 C 207.621094 128.378906 195.730469 149.0625 195.023438 186.585938 C 197.445312 174.660156 202.339844 158.953125 212.179688 146.632812 C 212.179688 146.632812 203.058594 162.5 202.601562 191.269531 C 204.289062 183.625 207.5 174.015625 213.59375 166.386719 C 213.59375 166.386719 207.574219 176.855469 207.289062 195.839844 C 208.285156 191.890625 210.015625 187.25 213.023438 183.488281 C 213.023438 183.488281 210.726562 187.480469 209.867188 194.847656 C 222.3125 187.242188 230.621094 173.53125 230.621094 157.875 C 230.621094 133.964844 211.238281 114.582031 187.328125 114.582031 "/></g><g style="fill:#292929;fill-opacity:1;"><g transform="translate(117.347816, 234.617591)"><path style="stroke:none" d="M 6.9375 -23.09375 L 6.9375 -4.625 L 14.890625 -4.625 L 14.890625 0 L 1.6875 0 L 1.6875 -23.09375 Z M 6.9375 -23.09375 "/></g></g><g style="fill:#292929;fill-opacity:1;"><g transform="translate(133.165655, 234.617591)"><path style="stroke:none" d="M 3.03125 -1.703125 C 1.4375 -3.128906 0.640625 -4.953125 0.640625 -7.171875 C 0.640625 -9.390625 1.46875 -11.210938 3.125 -12.640625 C 4.789062 -14.066406 6.847656 -14.78125 9.296875 -14.78125 C 11.703125 -14.78125 13.726562 -14.0625 15.375 -12.625 C 17.03125 -11.1875 17.859375 -9.363281 17.859375 -7.15625 C 17.859375 -4.957031 17.050781 -3.144531 15.4375 -1.71875 C 13.820312 -0.289062 11.773438 0.421875 9.296875 0.421875 C 6.722656 0.421875 4.632812 -0.285156 3.03125 -1.703125 Z M 6.875 -9.609375 C 6.226562 -8.972656 5.90625 -8.160156 5.90625 -7.171875 C 5.90625 -6.179688 6.210938 -5.375 6.828125 -4.75 C 7.441406 -4.125 8.253906 -3.8125 9.265625 -3.8125 C 10.234375 -3.8125 11.03125 -4.128906 11.65625 -4.765625 C 12.28125 -5.398438 12.59375 -6.203125 12.59375 -7.171875 C 12.59375 -8.160156 12.269531 -8.972656 11.625 -9.609375 C 10.988281 -10.242188 10.203125 -10.5625 9.265625 -10.5625 C 8.316406 -10.5625 7.519531 -10.242188 6.875 -9.609375 Z M 6.875 -9.609375 "/></g></g><g style="fill:#292929;fill-opacity:1;"><g transform="translate(151.671128, 234.617591)"><path style="stroke:none" d="M 1.6875 0 L 1.6875 -14.359375 L 6.640625 -14.359375 L 6.640625 -12.859375 L 6.6875 -12.859375 C 7.976562 -14.140625 9.351562 -14.78125 10.8125 -14.78125 C 11.519531 -14.78125 12.222656 -14.6875 12.921875 -14.5 C 13.617188 -14.3125 14.289062 -14.019531 14.9375 -13.625 C 15.582031 -13.238281 16.101562 -12.6875 16.5 -11.96875 C 16.90625 -11.25 17.109375 -10.414062 17.109375 -9.46875 L 17.109375 0 L 12.15625 0 L 12.15625 -8.125 C 12.15625 -8.863281 11.914062 -9.515625 11.4375 -10.078125 C 10.957031 -10.640625 10.335938 -10.921875 9.578125 -10.921875 C 8.828125 -10.921875 8.148438 -10.628906 7.546875 -10.046875 C 6.941406 -9.472656 6.640625 -8.832031 6.640625 -8.125 L 6.640625 0 Z M 1.6875 0 "/></g></g><g style="fill:#292929;fill-opacity:1;"><g transform="translate(170.1766, 234.617591)"><path style="stroke:none" d="M 16.21875 -6.5 L 5.796875 -6.5 C 5.796875 -5.488281 6.117188 -4.738281 6.765625 -4.25 C 7.421875 -3.769531 8.132812 -3.53125 8.90625 -3.53125 C 9.707031 -3.53125 10.34375 -3.632812 10.8125 -3.84375 C 11.28125 -4.0625 11.8125 -4.488281 12.40625 -5.125 L 15.984375 -3.328125 C 14.492188 -0.828125 12.015625 0.421875 8.546875 0.421875 C 6.378906 0.421875 4.519531 -0.316406 2.96875 -1.796875 C 1.414062 -3.285156 0.640625 -5.070312 0.640625 -7.15625 C 0.640625 -9.25 1.414062 -11.039062 2.96875 -12.53125 C 4.519531 -14.03125 6.378906 -14.78125 8.546875 -14.78125 C 10.816406 -14.78125 12.664062 -14.125 14.09375 -12.8125 C 15.519531 -11.5 16.234375 -9.617188 16.234375 -7.171875 C 16.234375 -6.828125 16.226562 -6.601562 16.21875 -6.5 Z M 5.9375 -9.234375 L 11.390625 -9.234375 C 11.285156 -9.984375 10.992188 -10.554688 10.515625 -10.953125 C 10.035156 -11.359375 9.425781 -11.5625 8.6875 -11.5625 C 7.863281 -11.5625 7.207031 -11.347656 6.71875 -10.921875 C 6.226562 -10.492188 5.96875 -9.929688 5.9375 -9.234375 Z M 5.9375 -9.234375 "/></g></g><g style="fill:#292929;fill-opacity:1;"><g transform="translate(187.058294, 234.617591)"><path style="stroke:none" d=""/></g></g><g style="fill:#292929;fill-opacity:1;"><g transform="translate(194.701253, 234.617591)"><path style="stroke:none" d="M 10.1875 -23.515625 C 11.4375 -23.515625 12.660156 -23.332031 13.859375 -22.96875 C 15.054688 -22.601562 15.941406 -22.242188 16.515625 -21.890625 L 17.359375 -21.34375 L 15.234375 -17.140625 C 15.066406 -17.242188 14.832031 -17.382812 14.53125 -17.5625 C 14.226562 -17.75 13.664062 -17.988281 12.84375 -18.28125 C 12.03125 -18.582031 11.269531 -18.734375 10.5625 -18.734375 C 9.675781 -18.734375 8.992188 -18.546875 8.515625 -18.171875 C 8.046875 -17.796875 7.8125 -17.289062 7.8125 -16.65625 C 7.8125 -16.34375 7.921875 -16.050781 8.140625 -15.78125 C 8.367188 -15.507812 8.753906 -15.21875 9.296875 -14.90625 C 9.835938 -14.601562 10.3125 -14.359375 10.71875 -14.171875 C 11.132812 -13.984375 11.769531 -13.703125 12.625 -13.328125 C 14.125 -12.691406 15.398438 -11.828125 16.453125 -10.734375 C 17.503906 -9.640625 18.03125 -8.40625 18.03125 -7.03125 C 18.03125 -5.707031 17.789062 -4.550781 17.3125 -3.5625 C 16.84375 -2.570312 16.191406 -1.796875 15.359375 -1.234375 C 14.523438 -0.671875 13.601562 -0.253906 12.59375 0.015625 C 11.59375 0.285156 10.503906 0.421875 9.328125 0.421875 C 8.316406 0.421875 7.328125 0.316406 6.359375 0.109375 C 5.390625 -0.0976562 4.578125 -0.351562 3.921875 -0.65625 C 3.265625 -0.96875 2.675781 -1.269531 2.15625 -1.5625 C 1.632812 -1.863281 1.253906 -2.117188 1.015625 -2.328125 L 0.640625 -2.625 L 3.28125 -7.0625 C 3.5 -6.875 3.800781 -6.632812 4.1875 -6.34375 C 4.582031 -6.050781 5.28125 -5.660156 6.28125 -5.171875 C 7.28125 -4.691406 8.164062 -4.453125 8.9375 -4.453125 C 11.15625 -4.453125 12.265625 -5.207031 12.265625 -6.71875 C 12.265625 -7.039062 12.179688 -7.335938 12.015625 -7.609375 C 11.859375 -7.878906 11.578125 -8.144531 11.171875 -8.40625 C 10.773438 -8.675781 10.421875 -8.890625 10.109375 -9.046875 C 9.804688 -9.210938 9.304688 -9.457031 8.609375 -9.78125 C 7.910156 -10.113281 7.394531 -10.363281 7.0625 -10.53125 C 5.65625 -11.21875 4.566406 -12.078125 3.796875 -13.109375 C 3.035156 -14.148438 2.65625 -15.269531 2.65625 -16.46875 C 2.65625 -18.539062 3.421875 -20.234375 4.953125 -21.546875 C 6.484375 -22.859375 8.226562 -23.515625 10.1875 -23.515625 Z M 10.1875 -23.515625 "/></g></g><g style="fill:#292929;fill-opacity:1;"><g transform="translate(213.514686, 234.617591)"><path style="stroke:none" d="M 2.515625 -14.359375 L 2.515625 -19.71875 L 7.46875 -19.71875 L 7.46875 -14.359375 L 10.5 -14.359375 L 10.5 -10.578125 L 7.46875 -10.578125 L 7.46875 -6.015625 C 7.46875 -4.691406 7.84375 -4.03125 8.59375 -4.03125 C 8.78125 -4.03125 8.972656 -4.066406 9.171875 -4.140625 C 9.378906 -4.210938 9.539062 -4.289062 9.65625 -4.375 L 9.828125 -4.484375 L 11.0625 -0.46875 C 10 0.125 8.785156 0.421875 7.421875 0.421875 C 6.484375 0.421875 5.675781 0.257812 5 -0.0625 C 4.332031 -0.394531 3.828125 -0.835938 3.484375 -1.390625 C 3.140625 -1.941406 2.890625 -2.519531 2.734375 -3.125 C 2.585938 -3.726562 2.515625 -4.375 2.515625 -5.0625 L 2.515625 -10.578125 L 0.453125 -10.578125 L 0.453125 -14.359375 Z M 2.515625 -14.359375 "/></g></g><g style="fill:#292929;fill-opacity:1;"><g transform="translate(224.57318, 234.617591)"><path style="stroke:none" d="M 2.65625 -1.765625 C 1.3125 -3.234375 0.640625 -5.03125 0.640625 -7.15625 C 0.640625 -9.289062 1.3125 -11.09375 2.65625 -12.5625 C 4 -14.039062 5.707031 -14.78125 7.78125 -14.78125 C 9.6875 -14.78125 11.253906 -14.179688 12.484375 -12.984375 L 12.484375 -14.359375 L 17.4375 -14.359375 L 17.4375 0 L 12.546875 0 L 12.546875 -1.625 L 12.484375 -1.625 C 11.253906 -0.257812 9.6875 0.421875 7.78125 0.421875 C 5.707031 0.421875 4 -0.304688 2.65625 -1.765625 Z M 6.875 -9.609375 C 6.226562 -8.972656 5.90625 -8.160156 5.90625 -7.171875 C 5.90625 -6.179688 6.210938 -5.375 6.828125 -4.75 C 7.441406 -4.125 8.253906 -3.8125 9.265625 -3.8125 C 10.234375 -3.8125 11.03125 -4.128906 11.65625 -4.765625 C 12.28125 -5.398438 12.59375 -6.203125 12.59375 -7.171875 C 12.59375 -8.160156 12.269531 -8.972656 11.625 -9.609375 C 10.988281 -10.242188 10.203125 -10.5625 9.265625 -10.5625 C 8.316406 -10.5625 7.519531 -10.242188 6.875 -9.609375 Z M 6.875 -9.609375 "/></g></g><g style="fill:#292929;fill-opacity:1;"><g transform="translate(243.694573, 234.617591)"><path style="stroke:none" d="M 1.6875 0 L 1.6875 -14.359375 L 6.640625 -14.359375 L 6.640625 -12.296875 L 6.6875 -12.296875 C 6.726562 -12.367188 6.789062 -12.457031 6.875 -12.5625 C 6.957031 -12.675781 7.140625 -12.875 7.421875 -13.15625 C 7.703125 -13.4375 8 -13.6875 8.3125 -13.90625 C 8.632812 -14.132812 9.046875 -14.335938 9.546875 -14.515625 C 10.046875 -14.691406 10.5625 -14.78125 11.09375 -14.78125 C 11.632812 -14.78125 12.164062 -14.707031 12.6875 -14.5625 C 13.207031 -14.414062 13.585938 -14.265625 13.828125 -14.109375 L 14.21875 -13.890625 L 12.15625 -9.6875 C 11.539062 -10.207031 10.679688 -10.46875 9.578125 -10.46875 C 8.984375 -10.46875 8.46875 -10.335938 8.03125 -10.078125 C 7.601562 -9.816406 7.300781 -9.5 7.125 -9.125 C 6.945312 -8.75 6.820312 -8.429688 6.75 -8.171875 C 6.675781 -7.910156 6.640625 -7.707031 6.640625 -7.5625 L 6.640625 0 Z M 1.6875 0 "/></g></g><g style="fill:#292929;fill-opacity:1;"><g transform="translate(128.825065, 259.804188)"><path style="stroke:none" d="M 2.359375 -1.03125 L 5.765625 -1.03125 L 5.765625 0 L 1.078125 0 L 1.078125 -9.765625 L 2.359375 -9.765625 Z M 2.359375 -1.03125 "/></g></g><g style="fill:#292929;fill-opacity:1;"><g transform="translate(137.011699, 259.804188)"><path style="stroke:none" d="M 6.84375 -2.171875 L 2.59375 -2.171875 L 1.8125 0 L 0.46875 0 L 3.984375 -9.703125 L 5.453125 -9.703125 L 8.96875 0 L 7.625 0 Z M 6.484375 -3.203125 L 4.71875 -8.140625 L 2.953125 -3.203125 Z M 6.484375 -3.203125 "/></g></g><g style="fill:#292929;fill-opacity:1;"><g transform="translate(148.584433, 259.804188)"><path style="stroke:none" d="M 8.75 0 L 7.46875 0 L 2.359375 -7.765625 L 2.359375 0 L 1.078125 0 L 1.078125 -9.765625 L 2.359375 -9.765625 L 7.46875 -2.015625 L 7.46875 -9.765625 L 8.75 -9.765625 Z M 8.75 0 "/></g></g><g style="fill:#292929;fill-opacity:1;"><g transform="translate(160.56294, 259.804188)"><path style="stroke:none" d="M 4.109375 -9.765625 C 5.179688 -9.765625 6.101562 -9.5625 6.875 -9.15625 C 7.65625 -8.757812 8.253906 -8.191406 8.671875 -7.453125 C 9.085938 -6.722656 9.296875 -5.859375 9.296875 -4.859375 C 9.296875 -3.859375 9.085938 -2.988281 8.671875 -2.25 C 8.253906 -1.519531 7.65625 -0.960938 6.875 -0.578125 C 6.101562 -0.191406 5.179688 0 4.109375 0 L 1.078125 0 L 1.078125 -9.765625 Z M 4.109375 -1.046875 C 5.367188 -1.046875 6.332031 -1.378906 7 -2.046875 C 7.664062 -2.710938 8 -3.648438 8 -4.859375 C 8 -6.066406 7.660156 -7.007812 6.984375 -7.6875 C 6.316406 -8.375 5.359375 -8.71875 4.109375 -8.71875 L 2.359375 -8.71875 L 2.359375 -1.046875 Z M 4.109375 -1.046875 "/></g></g><g style="fill:#292929;fill-opacity:1;"><g transform="translate(172.59742, 259.804188)"><path style="stroke:none" d="M 4.171875 0.09375 C 3.523438 0.09375 2.945312 -0.0195312 2.4375 -0.25 C 1.9375 -0.476562 1.539062 -0.796875 1.25 -1.203125 C 0.957031 -1.609375 0.804688 -2.078125 0.796875 -2.609375 L 2.15625 -2.609375 C 2.195312 -2.148438 2.382812 -1.765625 2.71875 -1.453125 C 3.050781 -1.140625 3.535156 -0.984375 4.171875 -0.984375 C 4.773438 -0.984375 5.25 -1.132812 5.59375 -1.4375 C 5.945312 -1.738281 6.125 -2.128906 6.125 -2.609375 C 6.125 -2.972656 6.019531 -3.269531 5.8125 -3.5 C 5.613281 -3.738281 5.359375 -3.921875 5.046875 -4.046875 C 4.742188 -4.171875 4.332031 -4.300781 3.8125 -4.4375 C 3.164062 -4.601562 2.648438 -4.769531 2.265625 -4.9375 C 1.878906 -5.101562 1.546875 -5.363281 1.265625 -5.71875 C 0.992188 -6.082031 0.859375 -6.570312 0.859375 -7.1875 C 0.859375 -7.71875 0.992188 -8.1875 1.265625 -8.59375 C 1.535156 -9.007812 1.914062 -9.328125 2.40625 -9.546875 C 2.894531 -9.773438 3.457031 -9.890625 4.09375 -9.890625 C 5 -9.890625 5.742188 -9.660156 6.328125 -9.203125 C 6.910156 -8.742188 7.242188 -8.132812 7.328125 -7.375 L 5.921875 -7.375 C 5.878906 -7.75 5.679688 -8.078125 5.328125 -8.359375 C 4.984375 -8.648438 4.53125 -8.796875 3.96875 -8.796875 C 3.425781 -8.796875 2.988281 -8.65625 2.65625 -8.375 C 2.320312 -8.101562 2.15625 -7.71875 2.15625 -7.21875 C 2.15625 -6.863281 2.253906 -6.570312 2.453125 -6.34375 C 2.660156 -6.125 2.910156 -5.957031 3.203125 -5.84375 C 3.492188 -5.726562 3.90625 -5.597656 4.4375 -5.453125 C 5.082031 -5.273438 5.597656 -5.097656 5.984375 -4.921875 C 6.378906 -4.742188 6.71875 -4.472656 7 -4.109375 C 7.28125 -3.753906 7.421875 -3.269531 7.421875 -2.65625 C 7.421875 -2.1875 7.289062 -1.738281 7.03125 -1.3125 C 6.78125 -0.894531 6.410156 -0.554688 5.921875 -0.296875 C 5.429688 -0.0351562 4.847656 0.09375 4.171875 0.09375 Z M 4.171875 0.09375 "/></g></g><g style="fill:#292929;fill-opacity:1;"><g transform="translate(182.952835, 259.804188)"><path style="stroke:none" d="M 0.609375 -4.890625 C 0.609375 -5.835938 0.820312 -6.691406 1.25 -7.453125 C 1.675781 -8.210938 2.257812 -8.804688 3 -9.234375 C 3.738281 -9.671875 4.5625 -9.890625 5.46875 -9.890625 C 6.53125 -9.890625 7.457031 -9.628906 8.25 -9.109375 C 9.050781 -8.597656 9.632812 -7.875 10 -6.9375 L 8.46875 -6.9375 C 8.195312 -7.519531 7.804688 -7.96875 7.296875 -8.28125 C 6.785156 -8.601562 6.175781 -8.765625 5.46875 -8.765625 C 4.789062 -8.765625 4.179688 -8.601562 3.640625 -8.28125 C 3.097656 -7.96875 2.671875 -7.519531 2.359375 -6.9375 C 2.054688 -6.351562 1.90625 -5.671875 1.90625 -4.890625 C 1.90625 -4.109375 2.054688 -3.425781 2.359375 -2.84375 C 2.671875 -2.257812 3.097656 -1.804688 3.640625 -1.484375 C 4.179688 -1.171875 4.789062 -1.015625 5.46875 -1.015625 C 6.175781 -1.015625 6.785156 -1.171875 7.296875 -1.484375 C 7.804688 -1.796875 8.195312 -2.25 8.46875 -2.84375 L 10 -2.84375 C 9.632812 -1.90625 9.050781 -1.179688 8.25 -0.671875 C 7.457031 -0.171875 6.53125 0.078125 5.46875 0.078125 C 4.5625 0.078125 3.738281 -0.128906 3 -0.546875 C 2.257812 -0.972656 1.675781 -1.5625 1.25 -2.3125 C 0.820312 -3.070312 0.609375 -3.929688 0.609375 -4.890625 Z M 0.609375 -4.890625 "/></g></g><g style="fill:#292929;fill-opacity:1;"><g transform="translate(195.896811, 259.804188)"><path style="stroke:none" d="M 6.84375 -2.171875 L 2.59375 -2.171875 L 1.8125 0 L 0.46875 0 L 3.984375 -9.703125 L 5.453125 -9.703125 L 8.96875 0 L 7.625 0 Z M 6.484375 -3.203125 L 4.71875 -8.140625 L 2.953125 -3.203125 Z M 6.484375 -3.203125 "/></g></g><g style="fill:#292929;fill-opacity:1;"><g transform="translate(207.469545, 259.804188)"><path style="stroke:none" d="M 7.609375 -6.90625 C 7.609375 -6.09375 7.328125 -5.414062 6.765625 -4.875 C 6.210938 -4.34375 5.367188 -4.078125 4.234375 -4.078125 L 2.359375 -4.078125 L 2.359375 0 L 1.078125 0 L 1.078125 -9.765625 L 4.234375 -9.765625 C 5.328125 -9.765625 6.160156 -9.492188 6.734375 -8.953125 C 7.316406 -8.421875 7.609375 -7.738281 7.609375 -6.90625 Z M 4.234375 -5.125 C 4.941406 -5.125 5.460938 -5.273438 5.796875 -5.578125 C 6.128906 -5.890625 6.296875 -6.332031 6.296875 -6.90625 C 6.296875 -8.101562 5.609375 -8.703125 4.234375 -8.703125 L 2.359375 -8.703125 L 2.359375 -5.125 Z M 4.234375 -5.125 "/></g></g><g style="fill:#292929;fill-opacity:1;"><g transform="translate(217.713025, 259.804188)"><path style="stroke:none" d="M 2.359375 -9.765625 L 2.359375 0 L 1.078125 0 L 1.078125 -9.765625 Z M 2.359375 -9.765625 "/></g></g><g style="fill:#292929;fill-opacity:1;"><g transform="translate(223.297101, 259.804188)"><path style="stroke:none" d="M 8.75 0 L 7.46875 0 L 2.359375 -7.765625 L 2.359375 0 L 1.078125 0 L 1.078125 -9.765625 L 2.359375 -9.765625 L 7.46875 -2.015625 L 7.46875 -9.765625 L 8.75 -9.765625 Z M 8.75 0 "/></g></g><g style="fill:#292929;fill-opacity:1;"><g transform="translate(235.275608, 259.804188)"><path style="stroke:none" d="M 8.46875 -6.9375 C 8.195312 -7.5 7.804688 -7.9375 7.296875 -8.25 C 6.785156 -8.5625 6.1875 -8.71875 5.5 -8.71875 C 4.820312 -8.71875 4.207031 -8.5625 3.65625 -8.25 C 3.113281 -7.9375 2.6875 -7.488281 2.375 -6.90625 C 2.0625 -6.320312 1.90625 -5.648438 1.90625 -4.890625 C 1.90625 -4.117188 2.0625 -3.441406 2.375 -2.859375 C 2.6875 -2.285156 3.113281 -1.84375 3.65625 -1.53125 C 4.207031 -1.21875 4.820312 -1.0625 5.5 -1.0625 C 6.457031 -1.0625 7.242188 -1.34375 7.859375 -1.90625 C 8.472656 -2.476562 8.832031 -3.253906 8.9375 -4.234375 L 5.046875 -4.234375 L 5.046875 -5.265625 L 10.296875 -5.265625 L 10.296875 -4.28125 C 10.210938 -3.476562 9.957031 -2.742188 9.53125 -2.078125 C 9.101562 -1.410156 8.539062 -0.882812 7.84375 -0.5 C 7.144531 -0.113281 6.363281 0.078125 5.5 0.078125 C 4.59375 0.078125 3.765625 -0.128906 3.015625 -0.546875 C 2.273438 -0.972656 1.6875 -1.5625 1.25 -2.3125 C 0.820312 -3.070312 0.609375 -3.929688 0.609375 -4.890625 C 0.609375 -5.835938 0.820312 -6.691406 1.25 -7.453125 C 1.6875 -8.210938 2.273438 -8.804688 3.015625 -9.234375 C 3.765625 -9.660156 4.59375 -9.875 5.5 -9.875 C 6.539062 -9.875 7.457031 -9.613281 8.25 -9.09375 C 9.050781 -8.582031 9.632812 -7.863281 10 -6.9375 Z M 8.46875 -6.9375 "/></g></g></g></svg>